<svg xmlns="http://www.w3.org/2000/svg" xmlns:xlink="http://www.w3.org/1999/xlink" viewBox="0 0 662.24 176.11"><defs><style>.cls-1,.cls-3,.cls-5{fill:none;}.cls-2{fill:#00b0b0;}.cls-3,.cls-5{stroke:#fff;stroke-miterlimit:10;}.cls-3{stroke-width:0.15px;}.cls-4{fill:#fff;}.cls-6{fill:url(#New_Pattern);}.cls-7{fill:#631011;}.cls-8{fill:#660915;}</style><pattern id="New_Pattern" data-name="New Pattern" width="18" height="18" patternUnits="userSpaceOnUse" viewBox="0 0 18 18"><rect class="cls-1" width="18" height="18"/><rect class="cls-2" width="18" height="18"/><path class="cls-3" d="M.32,7.34.8,8.72,3.61.9"/><path class="cls-3" d="M4.64,2.56,4.16,1.18,1.35,9"/><path class="cls-3" d="M3.51,7.48,4,8.86,6.8,1"/><path class="cls-3" d="M7.83,2.7,7.35,1.32,4.54,9.14"/><path class="cls-3" d="M6.84,7.06l.48,1.38L10.13.62"/><path class="cls-3" d="M11.16,2.28,10.68.9,7.87,8.72"/><path class="cls-3" d="M10,7.34l.48,1.38L13.32.9"/><path class="cls-3" d="M14.35,2.56l-.47-1.38L11.06,9"/><path class="cls-3" d="M14.45,7.2l.47,1.38L17.74.76"/><path class="cls-3" d="M18.77,2.42,18.29,1,15.48,8.86"/><path class="cls-3" d="M1.35,16.07l.48,1.38L4.64,9.63"/><path class="cls-3" d="M5.67,11.29,5.19,9.91,2.38,17.73"/><path class="cls-3" d="M4.54,16.21,5,17.59,7.83,9.77"/><path class="cls-3" d="M8.86,11.43,8.39,10,5.58,17.87"/><path class="cls-3" d="M7.87,15.79l.48,1.38,2.81-7.82"/><path class="cls-3" d="M12.19,11l-.47-1.38L8.9,17.45"/><path class="cls-3" d="M11.06,16.07l.48,1.38,2.81-7.82"/><path class="cls-3" d="M15.38,11.29l-.47-1.38L12.1,17.73"/><path class="cls-3" d="M15.48,15.93,16,17.31l2.81-7.82"/><path class="cls-3" d="M19.8,11.15l-.48-1.38-2.81,7.82"/><path class="cls-3" d="M.77,2.42.29,1-2.52,8.86"/><path class="cls-3" d="M-2.52,15.93-2,17.31.77,9.49"/><path class="cls-3" d="M1.8,11.15,1.32,9.77l-2.81,7.82"/></pattern></defs><title>Asset 2</title><g id="Layer_2" data-name="Layer 2"><g id="Layer_2-2" data-name="Layer 2"><polygon class="cls-4" points="12.96 171.1 0 134.34 8.68 131.28 15.63 150.99 71.1 0 649.3 3.3 662.24 40.39 653.57 43.48 646.63 23.58 591.15 176.11 12.96 171.1"/><polygon class="cls-5" points="73.61 3.61 15.56 161.62 6.48 135.87 4.59 136.53 15.52 167.53 588.64 172.48 646.7 12.85 655.77 38.87 657.66 38.2 646.74 6.89 73.61 3.61"/><polygon class="cls-6" points="75.49 4.3 646.72 7.96 587.55 172.48 15.52 167.53 75.49 4.3"/><path class="cls-7" d="M117.88,163.12a46.84,46.84,0,0,1-23.21-7.37,37.9,37.9,0,0,1-16.19-20.4l4.68-2a32.41,32.41,0,0,0,14.32,17.77,43.19,43.19,0,0,0,20.59,6.41q16.76.74,28.17-9.57,10.57-9.47,11-22.71.93-24.51-37.06-36.49-20.49-6.42-30.88-17T79.51,47q.84-20.51,15.35-30.4Q106.74,8.43,124,9.37q20.51.95,32.76,15.67L153,28.93q-10.77-13-29.2-14-15.72-.74-26.3,6.42Q85.23,29.78,84.56,47.23q-.93,24.18,37.07,36.17,20.49,6.42,30.88,17.14t9.82,24.93q-.65,15.76-13,26.92-12,10.83-29,10.83C119.5,163.22,118.69,163.19,117.88,163.12Z"/><path class="cls-7" d="M182.17,10.74V159L259.85,10.74h10.2V159L347.73,10.74h5.89l-79.17,151H265V12.1L186.57,161.75h-9.45v-151Z"/><path class="cls-7" d="M386.28,10.74v151h-5v-40H320.4l-22.46,40h-6l25.18-44.7v-.94h.46L376.93,10.74Zm-62.7,105.37h57.74V13.57Z"/><path class="cls-7" d="M409.59,161.75h-5.06v-151h47.26q14.41,0,24.71,11.56t10.2,27.87q0,16.3-10.2,27.76T451.79,89.5h-42.2Zm0-77.93h42.2q12.36,0,21.15-9.88a34.5,34.5,0,0,0,8.8-23.77,34.64,34.64,0,0,0-8.8-23.87q-8.79-9.89-21.15-9.89h-42.2Z"/><path class="cls-7" d="M513.09,149.66q-13.29-14.83-13.29-35.87V10.63h5.06V113.79q0,18.61,11.79,31.87T545,158.91q16.65,0,28.35-13.25t11.79-31.87V10.63h5.06V113.79q0,21-13.2,35.87t-32,14.93Q526.29,164.59,513.09,149.66Z"/><polygon class="cls-8" points="15.52 167.53 4.59 136.53 6.48 135.87 15.56 161.62 73.61 3.61 75.49 4.3 15.52 167.53"/><polygon class="cls-7" points="588.63 172.48 586.76 171.79 646.35 6.89 657.2 38.2 655.32 38.87 646.31 12.85 588.63 172.48"/></g></g></svg>